<?xml version="1.0" standalone="no"?>
<!DOCTYPE svg PUBLIC "-//W3C//DTD SVG 20010904//EN"
 "http://www.w3.org/TR/2001/REC-SVG-20010904/DTD/svg10.dtd">
<svg version="1.0" xmlns="http://www.w3.org/2000/svg"
 width="396.000000pt" height="453.000000pt" viewBox="0 0 396.000000 453.000000"
 preserveAspectRatio="xMidYMid meet">

<g transform="translate(0.000000,453.000000) scale(0.100000,-0.100000)"
fill="#000000" stroke="none">
<path d="M1700 4495 c-300 -45 -639 -187 -876 -367 -96 -73 -109 -87 -112
-116 -5 -46 21 -82 58 -82 20 0 47 15 88 50 94 77 237 168 357 225 127 60 199
86 334 120 174 43 238 50 441 50 162 -1 215 -5 310 -24 170 -34 318 -84 475
-162 419 -207 721 -568 837 -999 l31 -115 8 -470 c7 -473 14 -570 50 -700 87
-318 109 -438 109 -591 0 -241 -55 -371 -234 -549 -254 -253 -709 -481 -1146
-574 -319 -67 -596 -66 -920 6 -525 115 -1055 420 -1250 719 -70 107 -101 209
-107 354 -7 146 12 269 77 514 27 100 54 211 60 246 7 38 15 263 20 545 8 514
10 529 66 700 31 94 87 216 138 299 20 33 36 68 36 78 0 30 -36 58 -75 58 -34
0 -39 -5 -95 -92 -72 -111 -118 -224 -166 -405 l-37 -138 -8 -490 c-9 -539
-10 -547 -89 -820 -38 -133 -63 -331 -62 -490 0 -118 3 -140 34 -241 31 -99
42 -120 110 -210 188 -248 546 -494 946 -651 368 -144 873 -200 1231 -137 311
54 537 125 741 231 80 42 170 92 200 113 30 20 76 48 102 63 80 46 240 172
310 243 65 66 183 247 173 264 -3 4 4 18 14 31 25 32 58 165 66 260 7 98 -19
340 -50 449 -13 47 -40 155 -61 240 l-36 155 -8 450 c-5 248 -14 491 -20 540
-31 246 -166 546 -349 774 -112 140 -327 321 -495 416 -174 99 -405 184 -587
218 -205 38 -437 43 -639 12z"/>
<path d="M572 3888 c-35 -18 -38 -53 -8 -93 31 -40 52 -44 90 -14 19 15 26 30
26 54 0 54 -52 80 -108 53z"/>
<path d="M865 3186 c-119 -50 -216 -189 -270 -386 -37 -137 -64 -361 -66 -547
-2 -159 -1 -161 27 -213 17 -32 45 -64 72 -82 47 -32 120 -47 413 -84 141 -17
148 -17 194 0 59 23 110 67 136 117 29 58 41 220 37 488 -4 222 -6 241 -32
326 -53 174 -156 322 -262 374 -72 37 -171 39 -249 7z m200 -90 c29 -13 69
-44 94 -72 l43 -49 -58 -6 c-33 -3 -74 -13 -92 -23 -56 -29 -121 -106 -162
-191 -76 -158 -109 -320 -117 -572 -6 -167 -7 -173 -27 -173 -32 0 -84 36
-106 72 -23 39 -27 155 -10 348 32 361 117 591 245 657 73 39 122 41 190 9z
m120 -338 c40 -31 65 -93 65 -163 0 -70 -25 -132 -65 -163 -33 -26 -46 -27
-86 -6 -70 36 -96 184 -49 279 37 74 85 93 135 53z"/>
<path d="M2900 3201 c-144 -47 -263 -203 -322 -421 -22 -80 -23 -103 -23 -375
1 -322 8 -379 56 -445 61 -84 132 -108 269 -91 426 54 455 63 514 151 44 67
49 105 36 318 -27 482 -126 743 -315 840 -53 27 -166 39 -215 23z m177 -110
c154 -78 245 -359 259 -796 5 -170 5 -182 -15 -213 -24 -37 -76 -72 -108 -72
-23 0 -23 2 -23 129 0 302 -67 567 -181 718 -51 68 -114 105 -191 112 l-60 6
43 49 c82 92 180 116 276 67z m-200 -333 c58 -48 77 -196 35 -275 -12 -24 -36
-50 -52 -58 -130 -67 -209 208 -94 323 29 29 39 33 66 28 17 -3 37 -11 45 -18z"/>
<path d="M1628 1658 c-16 -12 -22 -29 -19 -55 0 -6 22 -32 47 -57 33 -31 53
-43 68 -40 20 3 46 29 46 45 0 13 -62 84 -88 101 -32 21 -34 21 -54 6z"/>
<path d="M2250 1624 c-38 -35 -50 -54 -50 -76 0 -38 34 -53 70 -30 33 20 90
84 90 100 0 15 -36 52 -50 52 -6 0 -33 -21 -60 -46z"/>
<path d="M600 1326 c-19 -24 -8 -60 25 -75 62 -29 220 -161 450 -376 144 -136
159 -148 255 -212 139 -94 285 -152 438 -173 125 -18 426 -8 521 18 219 61
347 143 603 390 196 188 350 318 406 344 35 16 42 24 42 46 0 61 -29 64 -202
22 -232 -58 -566 -126 -778 -161 -199 -33 -484 -37 -690 -10 -181 24 -570 99
-830 161 -181 43 -221 48 -240 26z m602 -268 c35 -98 101 -147 171 -127 39 11
93 66 103 105 6 25 9 26 53 20 152 -22 210 -28 336 -36 147 -9 304 -1 481 25
56 8 107 15 113 15 7 0 21 -20 32 -44 27 -62 60 -86 120 -86 67 0 106 36 143
129 15 39 34 71 41 71 8 0 19 -28 29 -72 15 -67 15 -72 -1 -91 -35 -39 -228
-207 -239 -207 -5 0 -26 16 -45 36 -70 73 -135 84 -193 33 -43 -37 -58 -85
-50 -155 l7 -52 -39 -11 c-118 -34 -417 -39 -544 -9 l-55 13 -5 80 c-3 44 -12
90 -19 103 -18 33 -70 62 -113 62 -31 0 -46 -9 -95 -54 l-59 -54 -44 32 c-25
18 -82 68 -128 111 -64 61 -82 83 -79 99 3 12 10 47 17 78 14 72 32 68 62 -14z
m1451 7 c-21 -44 -43 -52 -65 -25 -28 34 -22 48 25 58 23 5 45 7 49 5 4 -2 0
-19 -9 -38z m-1266 21 c9 -9 -28 -66 -42 -66 -14 0 -55 55 -55 74 0 8 88 1 97
-8z m171 -383 c2 -29 1 -53 -2 -53 -13 0 -96 40 -96 47 0 18 56 64 75 61 17
-3 20 -12 23 -55z m907 30 c14 -15 25 -31 25 -35 0 -9 -74 -48 -90 -48 -11 0
-14 68 -4 94 9 24 40 19 69 -11z"/>
</g>
</svg>
